<svg xmlns="http://www.w3.org/2000/svg" width="23.804" height="24.825" viewBox="0 0 23.804 24.825">
  <g id="cell-phone_1" transform="translate(0.005 511.723)">
    <path id="Caminho_7514" data-name="Caminho 7514" d="M2-511.669a2.7,2.7,0,0,0-1.931,1.926C.005-509.47,0-508.17,0-499.314c0,11.151-.019,10.423.3,11.034a2.86,2.86,0,0,0,1.155,1.111,3.42,3.42,0,0,0,.655.228c.209.039,2,.049,6.332.039l6.041-.015.311-.112a2.679,2.679,0,0,0,1.621-1.6,3.224,3.224,0,0,0,.121-1.189l.019-.912-.146-.146a.526.526,0,0,0-.607-.092c-.223.1-.252.214-.277,1.063-.034.966-.1,1.174-.514,1.548-.49.451.053.417-6.764.417H2.252l-.325-.16a1.473,1.473,0,0,1-.762-.786l-.126-.267V-509.48l.126-.267a1.474,1.474,0,0,1,.762-.786l.325-.16,1.038.015a8.62,8.62,0,0,1,1.131.063c.126.068.214.277.252.6a1.8,1.8,0,0,0,.48.98,2.643,2.643,0,0,0,.393.252l.247.131h4.949l.277-.136a1.541,1.541,0,0,0,.859-1.237c.044-.359.116-.509.272-.587a6.652,6.652,0,0,1,1.092-.063c1.184-.019,1.349.019,1.766.4s.48.582.514,1.548c.024.849.053.961.277,1.063a.526.526,0,0,0,.607-.092l.146-.146-.019-.912A3.224,3.224,0,0,0,16.411-510a2.679,2.679,0,0,0-1.621-1.6l-.311-.112-6.114-.01C3.548-511.727,2.2-511.717,2-511.669Zm8.9,1.252c-.063.442-.15.611-.349.7a31.8,31.8,0,0,1-4.561-.01c-.2-.092-.3-.291-.335-.689l-.029-.3h5.318Z" transform="translate(0)"/>
    <path id="Caminho_7515" data-name="Caminho 7515" d="M198.543-404.563a7.279,7.279,0,0,0-4.158,2.2,7.292,7.292,0,0,0-1.839,3.552,8.305,8.305,0,0,0,0,2.814,7.292,7.292,0,0,0,1.839,3.552,7.228,7.228,0,0,0,2.989,1.907,5.616,5.616,0,0,0,2.286.34,5.532,5.532,0,0,0,1.475-.112,7.247,7.247,0,0,0,4.993-3.867,7.169,7.169,0,0,0,0-6.434,7.2,7.2,0,0,0-4.9-3.862,5.763,5.763,0,0,0-1.407-.136A7.6,7.6,0,0,0,198.543-404.563Zm2.329,1.072a6.2,6.2,0,0,1,4.974,6.09,6.212,6.212,0,0,1-2.5,4.988,8,8,0,0,1-1.674.883,6.254,6.254,0,0,1-5.119-.495,6.213,6.213,0,0,1-2.8-7.288,6.084,6.084,0,0,1,1.495-2.436,6.085,6.085,0,0,1,3.494-1.8A8.07,8.07,0,0,1,200.872-403.491Z" transform="translate(-183.092 -101.913)"/>
    <path id="Caminho_7516" data-name="Caminho 7516" d="M290.48-362.813c-.272.121-.311.228-.311.883v.592l-.325.058a2.009,2.009,0,0,0-1.145.587,2.061,2.061,0,0,0,.815,3.416,4.527,4.527,0,0,0,1.145.116c.854.029.907.034,1.077.15a1.471,1.471,0,0,1,.315.311.759.759,0,0,1,.131.563.778.778,0,0,1-.121.548,1.47,1.47,0,0,1-.311.315l-.189.131-1.558.024c-1.679.024-1.713.034-1.849.291a.459.459,0,0,0,0,.49c.121.243.306.286,1.208.286h.8v.6c0,.524.01.611.1.723a.5.5,0,0,0,.6.16c.267-.112.325-.272.325-.922v-.558l.184-.029a2.094,2.094,0,0,0,1.858-1.766,2.109,2.109,0,0,0-.859-1.989,2.566,2.566,0,0,0-1.679-.388l-.9-.029-.214-.146a1.031,1.031,0,0,1,.165-1.8,6.49,6.49,0,0,1,1.621-.073c1.606,0,1.694-.015,1.834-.315a.74.74,0,0,0,.078-.218.74.74,0,0,0-.078-.218c-.126-.272-.291-.315-1.2-.315h-.806v-.558c0-.65-.058-.815-.315-.927C290.674-362.9,290.669-362.9,290.48-362.813Z" transform="translate(-274.113 -141.625)"/>
  </g>
</svg>
