<svg xmlns="http://www.w3.org/2000/svg" width="24.067" height="24.093" viewBox="0 0 24.067 24.093">
  <g id="down-arrow" transform="translate(-0.4 512.113)">
    <path id="Caminho_7517" data-name="Caminho 7517" d="M7.182-511.716a7.6,7.6,0,0,0-6.669,6.1,8.705,8.705,0,0,0,0,2.8,7.569,7.569,0,0,0,5.986,6,8.5,8.5,0,0,0,2.8,0,7.566,7.566,0,0,0,6.005-6,8.705,8.705,0,0,0,0-2.8A7.566,7.566,0,0,0,9.346-511.6,11.25,11.25,0,0,0,7.182-511.716Zm1.972,1.1a5.613,5.613,0,0,1,1.652.569,6.558,6.558,0,0,1,3.36,3.981,6.679,6.679,0,0,1,0,3.7,6.55,6.55,0,0,1-3.36,3.981,6.036,6.036,0,0,1-2.894.678,6.311,6.311,0,0,1-4.48-1.793,6.46,6.46,0,0,1-1.948-3.61,7.574,7.574,0,0,1,0-2.212,6.4,6.4,0,0,1,1.944-3.6,6.528,6.528,0,0,1,3.991-1.8A8.407,8.407,0,0,1,9.153-510.614Z" transform="translate(0 -0.364)"/>
    <path id="Caminho_7518" data-name="Caminho 7518" d="M109.3-458.829c-.235.118-.3.306-.3.908a2.073,2.073,0,0,1-.033.522,3.834,3.834,0,0,0-.866.235,2.654,2.654,0,0,0-.814.772,2.109,2.109,0,0,0,0,2.033,2.655,2.655,0,0,0,.814.772,3.343,3.343,0,0,0,1.5.235c.569,0,.7.014.847.089a.989.989,0,0,1-.047,1.812,5.685,5.685,0,0,1-1.544.075c-1.468,0-1.6.019-1.76.24a.557.557,0,0,0,0,.555c.141.2.334.24,1.148.24H109v.522c0,.607.061.8.306.908a.353.353,0,0,0,.424,0c.245-.113.306-.3.306-.908a1.74,1.74,0,0,1,.038-.522,3.865,3.865,0,0,0,.861-.235,2.654,2.654,0,0,0,.814-.772,2.107,2.107,0,0,0,.264-1.017,1.9,1.9,0,0,0-.626-1.449,2.364,2.364,0,0,0-1.93-.574c-.706,0-.889-.042-1.134-.273a.992.992,0,0,1,.264-1.614c.16-.08.292-.089,1.567-.089,1.492,0,1.628-.019,1.784-.24a.565.565,0,0,0,.075-.278.565.565,0,0,0-.075-.278c-.141-.2-.334-.24-1.148-.24h-.753v-.522c0-.607-.061-.8-.306-.908A.367.367,0,0,0,109.3-458.829Z" transform="translate(-101.607 -50.708)"/>
    <path id="Caminho_7519" data-name="Caminho 7519" d="M299.126-512.027a.5.5,0,0,0-.08.772.529.529,0,0,0,.207.136,4.549,4.549,0,0,1,1.224.692,3.658,3.658,0,0,1,1.012,1.308c.428.885.4.207.409,8.1l.019,6.979H300.59c-1.148,0-1.341.009-1.454.08a.487.487,0,0,0-.235.461c0,.184-.249-.108,2.8,3.29,1.012,1.125,1.9,2.08,1.981,2.122a.417.417,0,0,0,.32.052c.155-.028.4-.287,2.5-2.621,1.285-1.421,2.353-2.635,2.381-2.7a.532.532,0,0,0-.127-.551l-.122-.113-1.36-.014-1.36-.014-.009-6.951-.014-6.951-.127-.456a4.944,4.944,0,0,0-3.939-3.633A10.788,10.788,0,0,0,299.126-512.027Zm2.838,1.05a3.928,3.928,0,0,1,2.668,2.353c.282.715.264.207.292,8.1l.023,7.233.108.108c.1.1.141.108,1.172.132l1.064.023-1.567,1.741c-.861.955-1.624,1.8-1.694,1.878l-.132.132-1.675-1.859c-.922-1.026-1.675-1.873-1.675-1.887a9.093,9.093,0,0,1,.988-.028,5.949,5.949,0,0,0,1.1-.052.5.5,0,0,0,.193-.2c.071-.132.075-.744.061-7.511l-.014-7.365-.127-.456a5.06,5.06,0,0,0-1.181-2.146l-.282-.292h.165A2.741,2.741,0,0,1,301.964-510.978Z" transform="translate(-284.448 0)"/>
  </g>
</svg>
