<svg xmlns="http://www.w3.org/2000/svg" width="48" height="48" viewBox="0 0 48 48">
  <g id="Grupo_1050" data-name="Grupo 1050" transform="translate(-232 -328)">
    <g id="Ret창ngulo_104" data-name="Ret창ngulo 104" transform="translate(232 328)" fill="#fff" stroke="#f19494" stroke-width="1">
      <rect width="48" height="48" stroke="none"/>
      <rect x="0.5" y="0.5" width="47" height="47" fill="none"/>
    </g>
    <g id="Ret창ngulo_105" data-name="Ret창ngulo 105" transform="translate(240 336)" fill="#fff" stroke="#707070" stroke-width="1">
      <rect width="32" height="32" stroke="none"/>
      <rect x="0.5" y="0.5" width="31" height="31" fill="none"/>
    </g>
    <g id="Grupo_1051" data-name="Grupo 1051" transform="translate(-1.465)">
      <g id="Caminho_3757" data-name="Caminho 3757" transform="translate(247 340.972)" fill="#fff">
        <path d="M 10.464599609375 17.71556663513184 C 6.175466060638428 17.71556663513184 1.771482229232788 13.01187229156494 0.6570931673049927 11.7372350692749 C 1.77299427986145 10.46663284301758 6.180719375610352 5.779666900634766 10.464599609375 5.779666900634766 C 14.74817848205566 5.779666900634766 19.15560531616211 10.46599578857422 20.2719554901123 11.73706817626953 C 19.15644454956055 13.01165390014648 14.74834632873535 17.71556663513184 10.464599609375 17.71556663513184 Z" stroke="none"/>
        <path d="M 10.464599609375 6.279666900634766 C 6.690282821655273 6.279666900634766 2.747259140014648 10.18384838104248 1.326910018920898 11.73857879638672 C 1.867105484008789 12.33306503295898 2.774473190307617 13.27009201049805 3.906808853149414 14.20485687255859 C 5.57056999206543 15.57832717895508 8.058839797973633 17.21556663513184 10.464599609375 17.21556663513184 C 12.8604097366333 17.21556663513184 15.33794021606445 15.59084701538086 16.99445915222168 14.22787666320801 C 18.13570213317871 13.28886795043945 19.05572128295898 12.33898544311523 19.60193252563477 11.73821449279785 C 18.18083381652832 10.18276309967041 14.23834419250488 6.279666900634766 10.464599609375 6.279666900634766 M 10.464599609375 5.279666900634766 C 15.6968994140625 5.279666900634766 20.92919921875 11.736496925354 20.92919921875 11.736496925354 C 20.92919921875 11.736496925354 15.6968994140625 18.21556663513184 10.464599609375 18.21556663513184 C 5.2322998046875 18.21556663513184 0 11.736496925354 0 11.736496925354 C 0 11.736496925354 5.2322998046875 5.279666900634766 10.464599609375 5.279666900634766 Z" stroke="none" fill="#707070"/>
      </g>
      <g id="Elipse_218" data-name="Elipse 218" transform="translate(254 349)" fill="#fff" stroke="#707070" stroke-width="1">
        <circle cx="3.5" cy="3.5" r="3.5" stroke="none"/>
        <circle cx="3.5" cy="3.5" r="3" fill="none"/>
      </g>
    </g>
  </g>
</svg>
