<svg xmlns="http://www.w3.org/2000/svg" width="18" height="18" viewBox="0 0 18 18">
  <g id="Grupo_443" data-name="Grupo 443" transform="translate(-191 -343)">
    <g id="Elipse_6" data-name="Elipse 6" transform="translate(191 343)" fill="#fff" stroke="#707070" stroke-width="1">
      <circle cx="9" cy="9" r="9" stroke="none"/>
      <circle cx="9" cy="9" r="8.5" fill="none"/>
    </g>
    <g id="Elipse_7" data-name="Elipse 7" transform="translate(197 346)" fill="#fff" stroke="#707070" stroke-width="1">
      <circle cx="3" cy="3" r="3" stroke="none"/>
      <circle cx="3" cy="3" r="2.5" fill="none"/>
    </g>
    <g id="Interseção_1" data-name="Interseção 1" transform="translate(1354 2319)" fill="#fff">
      <path d="M -1153.999877929688 -1958.50048828125 C -1156.010986328125 -1958.50048828125 -1157.946655273438 -1959.209106445312 -1159.477783203125 -1960.500732421875 C -1159.224609375 -1963.322631835938 -1156.862915039062 -1965.499633789062 -1153.999877929688 -1965.499633789062 C -1151.136962890625 -1965.499633789062 -1148.775512695312 -1963.322265625 -1148.522705078125 -1960.5 C -1150.053955078125 -1959.208862304688 -1151.989379882812 -1958.50048828125 -1153.999877929688 -1958.50048828125 Z" stroke="none"/>
      <path d="M -1153.999877929688 -1959.00048828125 C -1152.196533203125 -1959.00048828125 -1150.457641601562 -1959.605834960938 -1149.05078125 -1960.714599609375 C -1149.39697265625 -1963.152709960938 -1151.485717773438 -1964.999633789062 -1153.999877929688 -1964.999633789062 C -1156.51416015625 -1964.999633789062 -1158.603149414062 -1963.152954101562 -1158.94970703125 -1960.715209960938 C -1157.543090820312 -1959.606079101562 -1155.803833007812 -1959.00048828125 -1153.999877929688 -1959.00048828125 M -1153.999877929688 -1958.00048828125 C -1156.301879882812 -1958.00048828125 -1158.40185546875 -1958.864501953125 -1159.993408203125 -1960.286376953125 C -1159.844116210938 -1963.46728515625 -1157.2177734375 -1965.999633789062 -1153.999877929688 -1965.999633789062 C -1150.78173828125 -1965.999633789062 -1148.156005859375 -1963.466796875 -1148.007080078125 -1960.285522460938 C -1149.598510742188 -1958.864501953125 -1151.698364257812 -1958.00048828125 -1153.999877929688 -1958.00048828125 Z" stroke="none" fill="#707070"/>
    </g>
  </g>
</svg>
