<svg xmlns="http://www.w3.org/2000/svg" width="16.637" height="16.332" viewBox="0 0 16.637 16.332">
  <g id="Grupo_20424" data-name="Grupo 20424" transform="translate(-191.939 -400.26)">
    <g id="Grupo_20425" data-name="Grupo 20425">
      <path id="Caminho_7501" data-name="Caminho 7501" d="M-16622.621-22598.041l3.154-2.979a2.544,2.544,0,0,1,3.51,0l3.01,2.979a3.689,3.689,0,0,0-1.947.678c-.029,0-2.5,2.566-2.5,2.566a.4.4,0,0,1-.609,0l-2.875-2.922a1.852,1.852,0,0,0-1.516-.322A1.815,1.815,0,0,1-16622.621-22598.041Z" transform="translate(16818 23002)" fill="#707070"/>
      <path id="Caminho_7502" data-name="Caminho 7502" d="M-16622.621-22598.041l3.154-2.979a2.544,2.544,0,0,1,3.51,0l3.01,2.979a3.689,3.689,0,0,0-1.947.678c-.029,0-2.5,2.566-2.5,2.566a.4.4,0,0,1-.609,0l-2.875-2.922a1.852,1.852,0,0,0-1.516-.322A1.815,1.815,0,0,1-16622.621-22598.041Z" transform="translate(-16417.449 -22185.148) rotate(180)" fill="#707070"/>
      <path id="Caminho_7503" data-name="Caminho 7503" d="M-16623.553-22596.963c-.66.633-2.086,2.166-2.086,2.166a1.635,1.635,0,0,0,0,2.191c0-.027,2.3,2.588,2.3,2.588a2.279,2.279,0,0,0,2.008-.133c.025,0,3.063-3.01,3.063-3.01a1.544,1.544,0,0,1,1.029,0c.08,0,3.2,3.01,3.2,3.01s1.295.633,2.061,0c0-.053,2.219-2.455,2.219-2.455a1.889,1.889,0,0,0-.232-2.457c.02.053-1.986-1.9-1.986-1.9a1.977,1.977,0,0,0-2.061,0c0,.025-3.062,2.963-3.062,2.963a1.083,1.083,0,0,1-1.162,0c-.025-.031-3.2-3.1-3.2-3.1S-16622.893-22597.6-16623.553-22596.963Z" transform="translate(16818 23002)" fill="#707070"/>
    </g>
  </g>
</svg>
