<svg xmlns="http://www.w3.org/2000/svg" width="48" height="48" viewBox="0 0 48 48">
  <g id="Grupo_20391" data-name="Grupo 20391" transform="translate(-232 -328)">
    <g id="Ret창ngulo_104" data-name="Ret창ngulo 104" transform="translate(232 328)" fill="#fff" stroke="#f19494" stroke-width="1">
      <rect width="48" height="48" stroke="none"/>
      <rect x="0.5" y="0.5" width="47" height="47" fill="none"/>
    </g>
    <g id="Ret창ngulo_105" data-name="Ret창ngulo 105" transform="translate(240 336)" fill="#fff" stroke="#707070" stroke-width="1">
      <rect width="32" height="32" stroke="none"/>
      <rect x="0.5" y="0.5" width="31" height="31" fill="none"/>
    </g>
    <g id="Grupo_20394" data-name="Grupo 20394">
      <path id="Caminho_7465" data-name="Caminho 7465" d="M243.436,352a17.779,17.779,0,0,0,9.97,3.433A14.941,14.941,0,0,0,263.266,352" transform="translate(2.648 -1.346)" fill="none" stroke="#707070" stroke-width="1"/>
      <g id="Grupo_20392" data-name="Grupo 20392">
        <path id="Caminho_7466" data-name="Caminho 7466" d="M264,352l1.451,2.508" fill="none" stroke="#707070" stroke-width="1"/>
        <path id="Caminho_7467" data-name="Caminho 7467" d="M264,352l.586,2.258" transform="translate(-5 2.092)" fill="none" stroke="#707070" stroke-width="1"/>
      </g>
      <g id="Grupo_20393" data-name="Grupo 20393" transform="translate(-12.736)">
        <path id="Caminho_7466-2" data-name="Caminho 7466" d="M265.515,352,264,354.508" transform="translate(-5)" fill="none" stroke="#707070" stroke-width="1"/>
        <path id="Caminho_7467-2" data-name="Caminho 7467" d="M264.612,352,264,354.258" transform="translate(1.124 2.092)" fill="none" stroke="#707070" stroke-width="1"/>
      </g>
    </g>
  </g>
</svg>
