<svg xmlns="http://www.w3.org/2000/svg" width="48" height="48" viewBox="0 0 48 48">
  <g id="Grupo_20418" data-name="Grupo 20418" transform="translate(-232 -328)">
    <g id="Retângulo_104" data-name="Retângulo 104" transform="translate(232 328)" fill="#fff" stroke="#f19494" stroke-width="1">
      <rect width="48" height="48" stroke="none"/>
      <rect x="0.5" y="0.5" width="47" height="47" fill="none"/>
    </g>
    <g id="Retângulo_105" data-name="Retângulo 105" transform="translate(240 336)" fill="#fff" stroke="#707070" stroke-width="1">
      <rect width="32" height="32" stroke="none"/>
      <rect x="0.5" y="0.5" width="31" height="31" fill="none"/>
    </g>
    <g id="Polígono_1" data-name="Polígono 1" transform="translate(265 344) rotate(90)" fill="#fff">
      <path d="M 14.3819694519043 15.50000286102295 L 1.618029475212097 15.50000286102295 C 1.366429567337036 15.50000286102295 1.236779570579529 15.33417320251465 1.192709565162659 15.26287269592285 C 1.148649573326111 15.19157314300537 1.058299541473389 15.00144290924072 1.170819520950317 14.77638244628906 L 7.552779674530029 2.012462854385376 C 7.63931941986084 1.839392781257629 7.806499481201172 1.73606276512146 7.999999523162842 1.73606276512146 C 8.193499565124512 1.73606276512146 8.360679626464844 1.839392781257629 8.447219848632812 2.012462854385376 L 14.82917976379395 14.77639293670654 C 14.94169998168945 15.00144290924072 14.85134983062744 15.19157314300537 14.80728912353516 15.26287269592285 C 14.76321983337402 15.33417320251465 14.63356971740723 15.50000286102295 14.3819694519043 15.50000286102295 Z" stroke="none"/>
      <path d="M 7.999999523162842 2.236063003540039 L 1.618029594421387 15.00000286102295 L 14.38195991516113 14.99999237060547 L 8.000009536743164 2.236072540283203 C 8.000007629394531 2.236068725585938 8.000005722045898 2.236063957214355 7.999999523162842 2.236063003540039 M 7.999999523162842 1.236064910888672 C 8.355081558227539 1.236064910888672 8.710165023803711 1.420328140258789 8.894430160522461 1.788852691650391 L 15.27638912200928 14.55278301239014 C 15.60883903503418 15.21768283843994 15.1253490447998 16.00000190734863 14.38195991516113 16.00000190734863 L 1.618029594421387 16.00000190734863 C 0.8746490478515625 16.00000190734863 0.3911590576171875 15.21768283843994 0.7236099243164062 14.55278301239014 L 7.105569839477539 1.788852691650391 C 7.289834976196289 1.420328140258789 7.644917488098145 1.236064910888672 7.999999523162842 1.236064910888672 Z" stroke="none" fill="#707070"/>
    </g>
  </g>
</svg>
