<svg xmlns="http://www.w3.org/2000/svg" width="24.166" height="24.38" viewBox="0 0 24.166 24.38">
  <g id="Grupo_20874" data-name="Grupo 20874" transform="translate(-299.501 -478.242)">
    <path id="Caminho_7533" data-name="Caminho 7533" d="M14627,519.692v-9.951h10.023v9.951Z" transform="translate(-14326.999 -31)" fill="none" stroke="#000" stroke-width="1"/>
    <path id="Caminho_7534" data-name="Caminho 7534" d="M14645.215,528.077h4.854v1.861h3.236v-1.861h1.537v6.472h-4.773v-1.375h-2.023v4.935h-2.83Z" transform="translate(-14331.874 -35.906)"/>
    <path id="Caminho_7535" data-name="Caminho 7535" d="M14651.568,541.107h1.806v-1.761h-1.806Z" transform="translate(-14333.414 -38.904)"/>
    <path id="Caminho_7536" data-name="Caminho 7536" d="M14651.568,541.107h1.806v-1.761h-1.806Z" transform="translate(-14330.404 -38.904)"/>
    <path id="Caminho_7537" data-name="Caminho 7537" d="M14627,519.692v-9.951h10.023v9.951Z" transform="translate(-14313.856 -31)" fill="none" stroke="#000" stroke-width="1"/>
    <path id="Caminho_7538" data-name="Caminho 7538" d="M14627,519.692v-9.951h10.023v9.951Z" transform="translate(-14326.999 -17.57)" fill="none" stroke="#000" stroke-width="1"/>
    <path id="Caminho_7539" data-name="Caminho 7539" d="M14651.567,542.791h3.529v-3.445h-3.529Z" transform="translate(-14348.32 -43.881)"/>
    <path id="Caminho_7540" data-name="Caminho 7540" d="M14651.567,542.791h3.529v-3.445h-3.529Z" transform="translate(-14348.32 -57.351)"/>
    <path id="Caminho_7541" data-name="Caminho 7541" d="M14651.567,542.791h3.529v-3.445h-3.529Z" transform="translate(-14335.178 -57.351)"/>
  </g>
</svg>
