<svg xmlns="http://www.w3.org/2000/svg" width="25.889" height="25.872" viewBox="0 0 25.889 25.872">
  <g id="Grupo_20902" data-name="Grupo 20902" transform="translate(-418.64 -233.476)">
    <path id="Caminho_7542" data-name="Caminho 7542" d="M14751.416,233.492l5.724-5.4a3.458,3.458,0,0,1,3.957,0c.073-.037,5.5,5.4,5.5,5.4s-1.283-.634-3.226.978c-.036.11-3.371,3.774-3.371,3.774s-.88,1.392-2.125-.4c0-.037-3.151-3.225-3.151-3.225a3.256,3.256,0,0,0-1.254-.74A10.606,10.606,0,0,0,14751.416,233.492Z" transform="translate(-14327.303 6)" fill="#707070"/>
    <path id="Caminho_7543" data-name="Caminho 7543" d="M14758,240.28h1.777l5.095-4.965a3.815,3.815,0,0,1,1.3-.282,3.623,3.623,0,0,1,1.279.282l3.777,3.778a8.139,8.139,0,0,1,.3,1.859,3.558,3.558,0,0,1-.3,1.431l-3.777,3.778a2.032,2.032,0,0,1-1.149.407,3.823,3.823,0,0,1-1.432-.407l-5.008-4.559H14758l-4.56,4.559a6.118,6.118,0,0,1-1.989.407,5.768,5.768,0,0,1-1.951-.407l-3.563-3.563a3.342,3.342,0,0,1-.3-1.364,7.115,7.115,0,0,1,.3-1.735l3.563-3.563a3.926,3.926,0,0,1,1.843-.535,5.773,5.773,0,0,1,2.1.535Z" transform="translate(-14327 5.603)" fill="#707070"/>
    <path id="Caminho_7544" data-name="Caminho 7544" d="M14751.416,248.026h2.115l5.1-4.922a1.117,1.117,0,0,1,.464-.1,2.21,2.21,0,0,1,.576.1l4.9,4.922h1.951l-5.638,5.637a5.453,5.453,0,0,1-1.968.5,3.639,3.639,0,0,1-1.718-.5Z" transform="translate(-14327.303 5.185)" fill="#707070"/>
  </g>
</svg>
