<svg xmlns="http://www.w3.org/2000/svg" width="74.002" height="29" viewBox="0 0 74.002 29">
  <g id="icon" transform="translate(4.533)" fill="none">
    <path d="M-4.533,0h74V6.819H65.476V23.886s.113,2.427-.976,3.705A5.484,5.484,0,0,1,61.123,29H41.958a6.565,6.565,0,0,1-3.922-1.409,8,8,0,0,1-1.756-4.084V9.064H29V23a6,6,0,0,1-6,6H6a6,6,0,0,1-6-6V6.819H-4.533Z" stroke="none"/>
    <path d="M -2.53271484375 2 L -2.53271484375 4.819433212280273 L 1.999996185302734 4.819433212280273 L 1.999996185302734 23 C 1.999996185302734 25.20561218261719 3.794384002685547 27 5.999996185302734 27 L 22.99999618530273 27 C 25.20560455322266 27 26.99999618530273 25.20561218261719 26.99999618530273 23 L 26.99999618530273 7.063766479492188 L 38.279296875 7.063766479492188 L 38.279296875 23.3654727935791 C 38.39226150512695 24.07976531982422 38.78372955322266 25.53302574157715 39.42562866210938 26.15388870239258 C 40.09644317626953 26.80272483825684 41.51614761352539 26.98544120788574 41.98257446289062 27 L 61.05668640136719 27 C 61.58866882324219 26.95826530456543 62.63245010375977 26.69989776611328 62.97702789306641 26.29508972167969 C 63.33878707885742 25.87008857727051 63.50224685668945 24.65683364868164 63.47757339477539 23.9763355255127 L 63.47558212280273 23.94106674194336 L 63.47558212280273 4.819433212280273 L 67.4697265625 4.819433212280273 L 67.4697265625 2 L -2.53271484375 2 M -4.53271484375 0 L 69.4697265625 0 L 69.4697265625 6.819433212280273 L 65.4755859375 6.819433212280273 L 65.4755859375 23.88633346557617 C 65.4755859375 23.88633346557617 65.58819580078125 26.31304550170898 64.49999237060547 27.59145545959473 C 63.41180419921875 28.86987686157227 61.12280654907227 29 61.12280654907227 29 L 41.95752716064453 29 C 41.95752716064453 29 39.45471954345703 28.96450042724609 38.03516387939453 27.59145545959473 C 36.61560821533203 26.21842193603516 36.279296875 23.50783348083496 36.279296875 23.50783348083496 L 36.279296875 9.063766479492188 L 28.99999618530273 9.063766479492188 L 28.99999618530273 23 C 28.99999618530273 26.31371116638184 26.31370544433594 29 22.99999618530273 29 L 5.999996185302734 29 C 2.686294555664062 29 -7.62939453125e-06 26.31371116638184 -7.62939453125e-06 23 L -7.62939453125e-06 6.819433212280273 L -4.53271484375 6.819433212280273 L -4.53271484375 0 Z" stroke="none" fill="#e2306c"/>
  </g>
</svg>
