<svg xmlns="http://www.w3.org/2000/svg" width="26.136" height="26.136" viewBox="0 0 26.136 26.136">
  <path id="Icon_awesome-key" data-name="Icon awesome-key" d="M26.136,8.984a8.989,8.989,0,0,1-10.66,8.828l-1.226,1.379a1.225,1.225,0,0,1-.916.411h-1.9v2.042a1.225,1.225,0,0,1-1.225,1.225H8.168v2.042a1.225,1.225,0,0,1-1.225,1.225H1.225A1.225,1.225,0,0,1,0,24.911V20.927a1.225,1.225,0,0,1,.359-.866l8.26-8.26A8.985,8.985,0,1,1,26.136,8.984Zm-8.984-2.45a2.45,2.45,0,1,0,2.45-2.45A2.45,2.45,0,0,0,17.152,6.534Z" fill="#707070"/>
</svg>
