<svg xmlns="http://www.w3.org/2000/svg" width="25.643" height="17.31" viewBox="0 0 25.643 17.31">
  <path id="Icon_zocial-email" data-name="Icon zocial-email" d="M.072,19.844V5.6q0-.025.074-.47L8.529,12.3.171,20.339a2.1,2.1,0,0,1-.1-.495Zm1.113-15.7a1.066,1.066,0,0,1,.42-.074H24.182a1.4,1.4,0,0,1,.445.074l-8.407,7.2-1.113.89-2.2,1.805-2.2-1.805-1.113-.89ZM1.209,21.3l8.432-8.086,3.264,2.646,3.264-2.646L24.6,21.3a1.187,1.187,0,0,1-.42.074H1.605a1.12,1.12,0,0,1-.4-.074Zm16.073-9,8.358-7.171a1.476,1.476,0,0,1,.074.47V19.844a1.9,1.9,0,0,1-.074.495Z" transform="translate(-0.072 -4.068)" fill="#707070"/>
</svg>
