<svg xmlns="http://www.w3.org/2000/svg" width="52.887" height="22.743" viewBox="0 0 52.887 22.743">
  <g id="icon" fill="none">
    <path d="M12,0a11.338,11.338,0,0,1,6.561,2.121,8.883,8.883,0,0,1,3.222,4.543H52.887c-.1,0,0,6.368,0,7.471h0v3.938H46.325V14.136H40.213v3.938H32.292V14.136H21.782a8.745,8.745,0,0,1-2.515,5.452C16.822,22.054,11.49,23.5,8.539,22.334S0,18.627,0,12A12,12,0,0,1,12,0Z" stroke="none"/>
    <path d="M 12 1.999996185302734 C 6.485977172851562 1.999996185302734 2 6.485977172851562 2 11.99999618530273 C 2 14.32158660888672 2.821086883544922 16.19870567321777 4.510196685791016 17.73862648010254 C 5.981479644775391 19.0799560546875 7.827777862548828 19.90474700927734 9.271888732910156 20.47344589233398 C 9.719448089599609 20.64969635009766 10.32040786743164 20.74285697937012 11.00978851318359 20.74285697937012 C 13.41814804077148 20.74285697937012 16.42138671875 19.61675643920898 17.84696960449219 18.17918586730957 C 19.61872482299805 16.39251708984375 19.77237319946289 14.27232933044434 19.78270721435547 14.08080959320068 L 19.78947830200195 12.1355562210083 L 34.29150772094727 12.1355562210083 L 34.29150772094727 16.07305526733398 L 38.21338653564453 16.07305526733398 L 38.21338653564453 12.1355562210083 L 48.32470703125 12.1355562210083 L 48.32470703125 16.07305526733398 L 50.88720703125 16.07305526733398 L 50.88720703125 14.1355562210083 C 50.88720703125 13.86703586578369 50.88054656982422 13.23235607147217 50.87282943725586 12.49745655059814 C 50.86085891723633 11.35719585418701 50.8459587097168 9.938096046447754 50.84285736083984 8.765935897827148 C 50.84276962280273 8.731743812561035 50.84267807006836 8.697830200195312 50.84259033203125 8.664425849914551 L 20.25011825561523 8.664425849914551 L 19.85114669799805 7.185276031494141 C 19.84531784057617 7.163656234741211 19.21807861328125 4.989166259765625 17.43447875976562 3.774015426635742 C 15.68228912353516 2.580286026000977 13.90465927124023 1.999996185302734 12 1.999996185302734 M 12 -3.814697265625e-06 C 13.88716888427734 -3.814697265625e-06 16.11500930786133 0.4550457000732422 18.560546875 2.121156692504883 C 21.00607872009277 3.787265777587891 21.78213882446289 6.664426803588867 21.78213882446289 6.664426803588867 C 21.78213882446289 6.664426803588867 52.78623580932617 6.664426803588867 52.88720703125 6.664426803588867 C 52.78613662719727 6.664426803588867 52.88720703125 13.03233623504639 52.88720703125 14.1355562210083 L 52.88720703125 18.07305526733398 L 46.32470703125 18.07305526733398 L 46.32470703125 14.1355562210083 L 40.21338653564453 14.1355562210083 L 40.21338653564453 18.07305526733398 L 32.29150772094727 18.07305526733398 L 32.29150772094727 14.1355562210083 L 21.78213882446289 14.1355562210083 C 21.78213882446289 14.1355562210083 21.7126293182373 17.12135696411133 19.26708984375 19.58746719360352 C 16.82155990600586 22.0535774230957 11.49042892456055 23.49661445617676 8.539058685302734 22.33434677124023 C 5.587688446044922 21.17208671569824 0 18.62741661071777 0 11.99999618530273 C 0 5.372575759887695 5.372577667236328 -3.814697265625e-06 12 -3.814697265625e-06 Z M 52.88720703125 6.664426803588867 C 52.88737487792969 6.664426803588867 52.887451171875 6.664426803588867 52.887451171875 6.664426803588867 C 52.887451171875 6.664426803588867 52.88736724853516 6.664426803588867 52.88720703125 6.664426803588867 Z" stroke="none" fill="#e2306c"/>
  </g>
</svg>
