<svg xmlns="http://www.w3.org/2000/svg" width="23.505" height="21.155" viewBox="0 0 23.505 21.155">
  <path id="Icon_material-business" data-name="Icon material-business" d="M14.753,9.2V4.5H3V25.655H26.505V9.2ZM7.7,23.3H5.351V20.954H7.7Zm0-4.7H5.351V16.253H7.7Zm0-4.7H5.351V11.552H7.7Zm0-4.7H5.351V6.851H7.7Zm4.7,14.1H10.052V20.954H12.4Zm0-4.7H10.052V16.253H12.4Zm0-4.7H10.052V11.552H12.4Zm0-4.7H10.052V6.851H12.4ZM24.155,23.3h-9.4V20.954H17.1V18.6H14.753V16.253H17.1V13.9H14.753V11.552h9.4ZM21.8,13.9H19.454v2.351H21.8Zm0,4.7H19.454v2.351H21.8Z" transform="translate(-3 -4.5)" fill="#707070"/>
</svg>
