<svg xmlns="http://www.w3.org/2000/svg" width="14.999" height="13.762" viewBox="0 0 14.999 13.762">
  <path id="Icon_material-favorite-border" data-name="Icon material-favorite-border" d="M13.874,4.5A4.491,4.491,0,0,0,10.5,6.067,4.491,4.491,0,0,0,7.125,4.5,4.085,4.085,0,0,0,3,8.625c0,2.835,2.55,5.145,6.412,8.655l1.087.982,1.087-.99C15.449,13.769,18,11.46,18,8.625A4.085,4.085,0,0,0,13.874,4.5Zm-3.3,11.662-.075.075-.075-.075C6.855,12.93,4.5,10.792,4.5,8.625A2.563,2.563,0,0,1,7.125,6,2.932,2.932,0,0,1,9.8,7.77h1.4A2.913,2.913,0,0,1,13.874,6,2.563,2.563,0,0,1,16.5,8.625C16.5,10.792,14.144,12.93,10.575,16.162Z" transform="translate(-3 -4.5)"/>
</svg>
