<svg xmlns="http://www.w3.org/2000/svg" width="26.5" height="26.5" viewBox="0 0 26.5 26.5">
  <path id="Icon_awesome-phone-alt" data-name="Icon awesome-phone-alt" d="M25.744,18.726l-5.8-2.484A1.242,1.242,0,0,0,18.5,16.6l-2.567,3.137A19.185,19.185,0,0,1,6.76,10.565L9.9,8a1.239,1.239,0,0,0,.357-1.449L7.769.751A1.25,1.25,0,0,0,6.346.032L.963,1.274A1.242,1.242,0,0,0,0,2.485,24.013,24.013,0,0,0,24.016,26.5a1.242,1.242,0,0,0,1.211-.963l1.242-5.383a1.257,1.257,0,0,0-.725-1.429Z" transform="translate(0 0)" fill="#707070"/>
</svg>
