<svg xmlns="http://www.w3.org/2000/svg" width="34.597" height="34.867" viewBox="0 0 34.597 34.867">
  <g id="icon" transform="translate(3.456 28.59) rotate(-90)" fill="none" stroke-linejoin="round">
    <path d="M-6.277-3.456A20.138,20.138,0,0,0-.919.17C.171.582,1.267.183,2.569.8,6.006,2.416,7.927,8.4,7.927,8.4l9.644,8.251L27.108,27.8s1.894,2.852,1.4,3.281-3.379-1.566-3.379-1.566L14.249,20.192l-9.43-9.322A27.054,27.054,0,0,1-1.824,6.476C-4.314,3.986-6.277-3.456-6.277-3.456Z" stroke="none"/>
    <path d="M -2.372377395629883 1.724601745605469 C -1.469676971435547 3.797994613647461 -0.7802696228027344 4.691520690917969 -0.4100074768066406 5.061790466308594 C 1.788471221923828 7.260259628295898 5.615392684936523 9.034090042114258 5.652582168579102 9.051189422607422 C 5.859411239624023 9.145980834960938 6.048505783081055 9.275344848632812 6.211763381958008 9.433677673339844 C 6.133783340454102 9.303659439086914 6.070579528808594 9.16450309753418 6.023672103881836 9.018301010131836 C 6.019201278686523 9.004520416259766 5.567821502685547 7.622289657592773 4.744041442871094 6.096660614013672 C 3.779932022094727 4.311161041259766 2.70488166809082 3.071500778198242 1.71693229675293 2.606050491333008 C 1.375171661376953 2.445030212402344 1.038591384887695 2.422700881958008 0.4731121063232422 2.397079467773438 C -0.1119384765625 2.370580673217773 -0.8400478363037109 2.337600708007812 -1.625947952270508 2.041191101074219 C -1.875267028808594 1.94697380065918 -2.124517440795898 1.840618133544922 -2.372377395629883 1.724601745605469 M 7.231169700622559 10.44136238098145 L 15.6046199798584 18.71961212158203 L 19.73018646240234 22.25492477416992 L 16.15239524841309 18.07427978515625 L 7.231169700622559 10.44136238098145 M -6.276857376098633 -3.456459045410156 C -6.276857376098633 -3.456459045410156 -3.470598220825195 -0.7939491271972656 -0.9189472198486328 0.1703205108642578 C 0.1712627410888672 0.5815010070800781 1.266941070556641 0.1831912994384766 2.569332122802734 0.7967910766601562 C 6.005741119384766 2.415790557861328 7.927242279052734 8.404779434204102 7.927242279052734 8.404779434204102 L 17.57080078125 16.65571975708008 L 27.10791206359863 27.79981994628906 C 27.10791206359863 27.79981994628906 29.00232124328613 30.65176010131836 28.50732231140137 31.08036994934082 C 28.01232719421387 31.50897979736328 25.12793159484863 29.5142707824707 25.12793159484863 29.5142707824707 L 14.24902153015137 20.19182968139648 L 4.819332122802734 10.86935043334961 C 4.819332122802734 10.86935043334961 0.6654319763183594 8.96565055847168 -1.82421875 6.47599983215332 C -4.313879013061523 3.986339569091797 -6.276857376098633 -3.456459045410156 -6.276857376098633 -3.456459045410156 Z" stroke="none" fill="#e2306c"/>
  </g>
</svg>
