<svg xmlns="http://www.w3.org/2000/svg" width="20.871" height="24.317" viewBox="0 0 20.871 24.317">
  <g id="mobile-payment" transform="translate(-45.1 505.719)">
    <path id="Caminho_7520" data-name="Caminho 7520" d="M49.572-505.689a1.383,1.383,0,0,0-.808.686c-.078.141-.092.307-.107.983l-.019.808-.248-.19a2.042,2.042,0,0,0-3.26,1.289,1.781,1.781,0,0,0,0,.642c.107.613.214.764,1.484,2.044l1.163,1.173-.282.136a2.087,2.087,0,0,0-1.134,2.141c.088.555.272.842,1.056,1.635l.7.715-.185.034a2.174,2.174,0,0,0-.925.482,2.035,2.035,0,0,0-.652,1.8,2.36,2.36,0,0,0,.847,1.421l.521.545-.18.034a2.175,2.175,0,0,0-.925.482,2.035,2.035,0,0,0-.652,1.8c.1.628.2.764,1.494,2.073l1.178,1.192.019.73c.015.633.029.754.122.925a1.547,1.547,0,0,0,.6.589c.161.088.4.092,5.061.107,3.615.01,4.924,0,5.027-.044a.5.5,0,0,0,.195-.161,24.007,24.007,0,0,0,.083-2.8c.024-2.633.029-2.706.136-2.988.258-.691.477-.929,1.757-1.888.6-.453,1.119-.861,1.148-.905s.058-1.007.073-2.467a9.943,9.943,0,0,1,.136-2.7,2.147,2.147,0,0,1,1.572-1.484,2.235,2.235,0,0,1,.35-.073c.078,0,.083.394.083,7.567,0,5.757.015,7.591.058,7.688a.528.528,0,0,0,.428.268.528.528,0,0,0,.428-.268c.044-.1.058-2,.058-8.009,0-8.657.019-8.087-.292-8.219a1.336,1.336,0,0,0-.555-.034,3.836,3.836,0,0,0-2.01.72l-.258.19-.01-3.9c-.015-3.7-.019-3.917-.107-4.078a1.548,1.548,0,0,0-.589-.6l-.195-.107-6.131-.01C52.453-505.723,49.64-505.709,49.572-505.689Zm12.214,1.027c.088.088.1.161.1.876v.779H49.621v-.779c0-.715.01-.788.1-.876s.161-.1,6.034-.1S61.688-504.76,61.786-504.663Zm-14.223,1.9a3.508,3.508,0,0,1,.647.516l.438.423v3.075L47.5-499.894c-.628-.628-1.2-1.231-1.265-1.343a1.028,1.028,0,0,1,.131-1.26A1.036,1.036,0,0,1,47.562-502.765Zm14.321,6.4v5.669l-.963.72a12.261,12.261,0,0,0-1.236,1.032,3.647,3.647,0,0,0-.9,2.2l-.029.472H51.908l-.53-.55-.53-.545.209-.054a2.061,2.061,0,0,0,.954-.55,1.984,1.984,0,0,0,.384-2.326,3.71,3.71,0,0,0-.856-1.036l-.71-.72.19-.034a1.719,1.719,0,0,0,.4-.136l.219-.107.467.438a5.277,5.277,0,0,0,2.5,1.328,7.021,7.021,0,0,0,2,.015,5.2,5.2,0,0,0,4.117-4.117,6.951,6.951,0,0,0-.019-2.01,5.028,5.028,0,0,0-1.372-2.521,4.918,4.918,0,0,0-2.389-1.411,3.637,3.637,0,0,0-1.285-.131,3.824,3.824,0,0,0-1.275.127,5.012,5.012,0,0,0-2.311,1.314,5.235,5.235,0,0,0-1.338,2.141c-.034.127-.073.224-.092.219s-.253-.229-.526-.487l-.491-.477v-4.136H61.883ZM56.511-499.7a4.17,4.17,0,0,1,2.934,2.35,3.446,3.446,0,0,1,.37,1.742,3.465,3.465,0,0,1-.365,1.737,4.1,4.1,0,0,1-2.5,2.234,4.208,4.208,0,0,1-4.331-1.095l-.273-.3.092-.224a2.1,2.1,0,0,0-.555-2.394c-.282-.292-.37-.418-.37-.521a3.568,3.568,0,0,1,.345-1.182A4.151,4.151,0,0,1,56.511-499.7Zm-7.64,2.491a12.628,12.628,0,0,1,1.416,1.324c1.168,1.178,1.226,1.241,1.3,1.508a.807.807,0,0,1,.024.521,1.1,1.1,0,0,1-.827.827.806.806,0,0,1-.521-.024c-.273-.078-.326-.127-1.557-1.353s-1.275-1.285-1.353-1.552a.991.991,0,0,1,.107-.856A1.048,1.048,0,0,1,48.871-497.213Zm0,4.671a12.628,12.628,0,0,1,1.416,1.324c1.168,1.178,1.226,1.241,1.3,1.508a.807.807,0,0,1,.024.521,1.1,1.1,0,0,1-.827.827.806.806,0,0,1-.521-.024c-.273-.078-.326-.126-1.557-1.353s-1.275-1.285-1.353-1.552a.991.991,0,0,1,.107-.856A1.048,1.048,0,0,1,48.871-492.541Zm-.389,4.282a12.628,12.628,0,0,1,1.416,1.324c1.168,1.178,1.226,1.241,1.3,1.508a.807.807,0,0,1,.024.521,1.1,1.1,0,0,1-.827.827.807.807,0,0,1-.521-.024c-.272-.078-.326-.127-1.557-1.353s-1.275-1.285-1.353-1.552a.991.991,0,0,1,.107-.856A1.048,1.048,0,0,1,48.482-488.259Zm10.287,4.423v1.46H54.292c-4.414,0-4.477,0-4.574-.1-.078-.078-.1-.161-.1-.394,0-.258.01-.292.088-.273a2.047,2.047,0,0,0,1.367-.146,2.321,2.321,0,0,0,.944-.944,2.235,2.235,0,0,0,.2-.988c-.029-.073.272-.078,3.26-.078h3.289Z" transform="translate(0)"/>
    <path id="Caminho_7521" data-name="Caminho 7521" d="M220.854-371.813a.532.532,0,0,0-.248.5c0,.2,0,.2-.2.234a1.767,1.767,0,0,0-1.251.954,1.265,1.265,0,0,0-.127.681,1.22,1.22,0,0,0,.136.691,1.736,1.736,0,0,0,.8.8c.258.127.336.136,1.017.161.647.019.754.039.876.126a.7.7,0,0,1-.088,1.2c-.136.073-.3.088-.881.088-.657,0-.73-.01-.817-.1a.386.386,0,0,1-.1-.263.477.477,0,0,0-.618-.433.651.651,0,0,0-.355.5,1.478,1.478,0,0,0,.326.832,1.227,1.227,0,0,0,.929.423l.35.024v.185c0,.457.35.7.725.511a.54.54,0,0,0,.248-.516c0-.18.01-.19.185-.224a1.684,1.684,0,0,0,1.294-1.187,1.531,1.531,0,0,0-.019-.988,1.713,1.713,0,0,0-.866-.988,2.02,2.02,0,0,0-1.007-.161c-.808-.034-.92-.068-1.095-.36a.664.664,0,0,1,.253-.91c.141-.088.248-.1.9-.1.827,0,.856.01.91.331a.482.482,0,0,0,.813.307.435.435,0,0,0,.141-.4,1.238,1.238,0,0,0-1.275-1.207h-.234v-.195a.54.54,0,0,0-.248-.516A.489.489,0,0,0,220.854-371.813Z" transform="translate(-165.438 -127.331)"/>
    <path id="Caminho_7522" data-name="Caminho 7522" d="M229.118-65.835a.391.391,0,0,0,0,.642l.165.165h1.367c1.489,0,1.586-.015,1.7-.268a.477.477,0,0,0-.19-.637A5.929,5.929,0,0,0,230.651-66h-1.367Z" transform="translate(-174.904 -418.322)"/>
  </g>
</svg>
