<svg id="person" xmlns="http://www.w3.org/2000/svg" width="18" height="18" viewBox="0 0 18 18">
  <g id="Elipse_6" data-name="Elipse 6" fill="none" stroke="#707070" stroke-width="1.5">
    <circle cx="9" cy="9" r="9" stroke="none"/>
    <circle cx="9" cy="9" r="8.25" fill="none"/>
  </g>
  <g id="Elipse_7" data-name="Elipse 7" transform="translate(6 3)" fill="none" stroke="#707070" stroke-width="1.5">
    <circle cx="3" cy="3" r="3" stroke="none"/>
    <circle cx="3" cy="3" r="2.25" fill="none"/>
  </g>
  <g id="Interseção_1" data-name="Interseção 1" transform="translate(1163 1976)" fill="none">
    <path d="M-1159.993-1960.286A6,6,0,0,1-1154-1966a6,6,0,0,1,5.993,5.714A8.968,8.968,0,0,1-1154-1958,8.965,8.965,0,0,1-1159.993-1960.286Z" stroke="none"/>
    <path d="M -1153.999877929688 -1959.50048828125 C -1152.408569335938 -1959.50048828125 -1150.870727539062 -1960.003295898438 -1149.595703125 -1960.929077148438 C -1150.02294921875 -1962.980346679688 -1151.836303710938 -1964.499633789062 -1153.999877929688 -1964.499633789062 C -1156.16357421875 -1964.499633789062 -1157.977294921875 -1962.980590820312 -1158.40478515625 -1960.9296875 C -1157.1298828125 -1960.003540039062 -1155.591674804688 -1959.50048828125 -1153.999877929688 -1959.50048828125 M -1153.999877929688 -1958.00048828125 C -1156.301879882812 -1958.00048828125 -1158.40185546875 -1958.864501953125 -1159.993408203125 -1960.286376953125 C -1159.844116210938 -1963.46728515625 -1157.2177734375 -1965.999633789062 -1153.999877929688 -1965.999633789062 C -1150.78173828125 -1965.999633789062 -1148.156005859375 -1963.466796875 -1148.007080078125 -1960.285522460938 C -1149.598510742188 -1958.864501953125 -1151.698364257812 -1958.00048828125 -1153.999877929688 -1958.00048828125 Z" stroke="none" fill="#707070"/>
  </g>
</svg>
