<svg id="play" xmlns="http://www.w3.org/2000/svg" width="16" height="16" viewBox="0 0 16 16">
  <g id="Polígono_2" data-name="Polígono 2" transform="translate(16) rotate(90)" fill="none">
    <path d="M7.106,1.789a1,1,0,0,1,1.789,0l6.382,12.764A1,1,0,0,1,14.382,16H1.618a1,1,0,0,1-.894-1.447Z" stroke="none"/>
    <path d="M 8.000001907348633 3.35408878326416 L 2.42704963684082 14.50000286102295 L 13.57295036315918 14.50000286102295 L 8.000001907348633 3.35408878326416 M 7.999999523162842 1.236064910888672 C 8.355081558227539 1.236064910888672 8.710165023803711 1.420328140258789 8.894430160522461 1.788852691650391 L 15.27638912200928 14.55278301239014 C 15.60883903503418 15.21768283843994 15.1253490447998 16.00000190734863 14.38195991516113 16.00000190734863 L 1.618029594421387 16.00000190734863 C 0.8746490478515625 16.00000190734863 0.3911590576171875 15.21768283843994 0.7236099243164062 14.55278301239014 L 7.105569839477539 1.788852691650391 C 7.289834976196289 1.420328140258789 7.644917488098145 1.236064910888672 7.999999523162842 1.236064910888672 Z" stroke="none" fill="#707070"/>
  </g>
</svg>
