<svg xmlns="http://www.w3.org/2000/svg" width="23.446" height="22.473" viewBox="0 0 23.446 22.473">
  <g id="share_1" transform="translate(-0.064 490.922)">
    <path id="Caminho_7523" data-name="Caminho 7523" d="M172.131-490.875a1.518,1.518,0,0,0-1.035.893c-.1.247-.1.325-.1,3.957s0,3.71.1,3.957a1.54,1.54,0,0,0,.765.8l.261.124,6.064.014c5.253.009,6.1,0,6.329-.06a1.386,1.386,0,0,0,1-.847l.119-.252v-7.465l-.119-.252a1.409,1.409,0,0,0-.989-.847c-.224-.06-1.085-.069-6.242-.064C174.984-490.917,172.227-490.9,172.131-490.875Zm12.384,1.09.133.133v7.254l-.133.133-.133.133h-6.027c-4.232,0-6.055-.014-6.132-.05a.486.486,0,0,1-.183-.179c-.069-.119-.078-.449-.078-3.664s0-3.545.078-3.664a.533.533,0,0,1,.169-.179c.064-.027,2.171-.046,6.132-.046l6.041,0Z" transform="translate(-163.107 0)"/>
    <path id="Caminho_7524" data-name="Caminho 7524" d="M289.74-426.745a2.3,2.3,0,0,0-.481.165,2.248,2.248,0,0,0-.875.893,1.926,1.926,0,0,0,.38,2.217,1.908,1.908,0,0,0,2.693.046,1.836,1.836,0,0,0,.618-1.415,1.85,1.85,0,0,0-.609-1.411,1.782,1.782,0,0,0-.943-.495A1.421,1.421,0,0,0,289.74-426.745Zm.815,1.03a.961.961,0,0,1,.224,1.594.966.966,0,0,1-1.608-.719.942.942,0,0,1,.568-.888A1.111,1.111,0,0,1,290.556-425.715Z" transform="translate(-274.932 -61.185)"/>
    <path id="Caminho_7525" data-name="Caminho 7525" d="M213.289-394.964a.64.64,0,0,0-.289.431.606.606,0,0,0,.3.431,3.383,3.383,0,0,0,1.374.009.532.532,0,0,0,.3-.44.532.532,0,0,0-.3-.44A3.428,3.428,0,0,0,213.289-394.964Z" transform="translate(-203.184 -91.491)"/>
    <path id="Caminho_7526" data-name="Caminho 7526" d="M405.289-394.964a.64.64,0,0,0-.289.431.606.606,0,0,0,.3.431,3.383,3.383,0,0,0,1.374.009.532.532,0,0,0,.3-.44.532.532,0,0,0-.3-.44A3.429,3.429,0,0,0,405.289-394.964Z" transform="translate(-386.391 -91.491)"/>
    <path id="Caminho_7527" data-name="Caminho 7527" d="M.359-255.86a.709.709,0,0,0-.183.142c-.092.1-.092.174-.105,4.644-.014,4.136-.009,4.552.06,4.681a.489.489,0,0,0,.188.2,13.156,13.156,0,0,0,1.736.05c1.905,0,1.8.027,1.942-.527.06-.224.1-.316.147-.307s.343.142.682.293A26.663,26.663,0,0,0,12.45-244.2c1.7.11,4.8-.962,9.4-3.238,1.566-.774,1.658-.838,1.658-1.145a2.809,2.809,0,0,0-1.337-1.589,3.346,3.346,0,0,0-1.571-.343,9.61,9.61,0,0,0-3.032.6c-.4.124-.774.234-.82.243-.064.009-.092-.046-.142-.307a2.425,2.425,0,0,0-1.255-1.644,5.99,5.99,0,0,0-.98-.321c-1.076-.266-8.45-2.043-8.473-2.043a.66.66,0,0,1,0-.243c.027-.22.018-.256-.1-.389a7.3,7.3,0,0,0-3.16-1.127A8.922,8.922,0,0,0,.359-255.86Zm2.2,1.1a8.681,8.681,0,0,1,2.235.655c.06.05.009.289-.412,1.956-.266,1.044-.659,2.6-.879,3.458l-.394,1.557-1.04.014-1.044.009v-7.8l.495.027C1.788-254.862,2.255-254.807,2.557-254.756Zm7.657,2.821c2.464.591,4.566,1.122,4.671,1.168a1.361,1.361,0,0,1,.769,1.159v.275l-.316.078c-1.356.343-3,.16-5.358-.6-.646-.211-.811-.215-.985-.027a.484.484,0,0,0,.22.8,21.2,21.2,0,0,0,3.082.829c1.8.311,2.505.234,5.166-.591a10.151,10.151,0,0,1,3.078-.687,2.46,2.46,0,0,1,1.117.211,1.839,1.839,0,0,1,.659.531c0,.046-2.079,1.076-3.229,1.594a28.579,28.579,0,0,1-5.349,1.933,5.422,5.422,0,0,1-2.033,0,35.08,35.08,0,0,1-6.819-2.464l-.559-.256.637-2.5c.348-1.379.637-2.51.637-2.519C5.6-253.043,6.166-252.911,10.215-251.935Z" transform="translate(0 -224.262)"/>
  </g>
</svg>
