<svg xmlns="http://www.w3.org/2000/svg" width="22.35" height="22.328" viewBox="0 0 22.35 22.328">
  <g id="verified_1" transform="translate(0.15 511.922)">
    <path id="Caminho_7528" data-name="Caminho 7528" d="M1.659-511.864a2.424,2.424,0,0,0-1.737,1.733c-.1.419-.1,10.878,0,11.3a2.433,2.433,0,0,0,1.484,1.676l.262.1,3.614.013,3.614.009.131-.127a.373.373,0,0,0,.127-.288.535.535,0,0,0-.205-.441c-.044-.022-1.659-.048-3.592-.061l-3.514-.022-.231-.1a1.6,1.6,0,0,1-.738-.8C.8-499.1.8-499.389.8-504.505V-509.9l.113-.24a1.325,1.325,0,0,1,.685-.707l.292-.144H20.176l.24.113a1.325,1.325,0,0,1,.707.685l.144.292.022,4.43c.013,2.436.039,4.461.057,4.5a.542.542,0,0,0,.179.148.459.459,0,0,0,.554-.092l.1-.113.013-4.369c.009-3.1,0-4.448-.035-4.636a2.4,2.4,0,0,0-1.755-1.833c-.24-.057-1.5-.065-9.4-.061C3.8-511.917,1.838-511.908,1.659-511.864Z" transform="translate(0 0)"/>
    <path id="Caminho_7529" data-name="Caminho 7529" d="M64.67-447.707a.472.472,0,0,0-.061.838,6.734,6.734,0,0,0,1.152.048,6.734,6.734,0,0,0,1.152-.048.471.471,0,0,0,.087-.742c-.109-.1-.118-.1-1.187-.113C65.22-447.729,64.7-447.721,64.67-447.707Z" transform="translate(-61.714 -61.394)"/>
    <path id="Caminho_7530" data-name="Caminho 7530" d="M194.287-404.763a2.85,2.85,0,0,0-1.807,1.458,2.759,2.759,0,0,0,.707,3.4,2.723,2.723,0,0,0,1.777.633,2.761,2.761,0,0,0,2.78-2.632,2.819,2.819,0,0,0-2.126-2.855A3.6,3.6,0,0,0,194.287-404.763Zm1.126.912a1.676,1.676,0,0,1,.86.5,1.828,1.828,0,0,1,.371,2.091,2.306,2.306,0,0,1-.738.812,1.91,1.91,0,0,1-1.964-.061,1.831,1.831,0,0,1-.288-2.842A1.791,1.791,0,0,1,195.413-403.851Z" transform="translate(-183.932 -102.422)"/>
    <path id="Caminho_7531" data-name="Caminho 7531" d="M240.189-276.58a6.1,6.1,0,0,0-5.024,5.172,8.356,8.356,0,0,0,.065,2.012,6.035,6.035,0,0,0,1.6,2.99,5.984,5.984,0,0,0,3.13,1.733,6.953,6.953,0,0,0,2.405,0,5.96,5.96,0,0,0,3.064-1.663,5.96,5.96,0,0,0,1.663-3.064,6.954,6.954,0,0,0,0-2.405,5.925,5.925,0,0,0-.554-1.554,5.7,5.7,0,0,0-1.179-1.576,6.027,6.027,0,0,0-2.968-1.6A9.3,9.3,0,0,0,240.189-276.58Zm2.1.982a5.068,5.068,0,0,1,1.724.738,6.633,6.633,0,0,1,1.5,1.545,5.123,5.123,0,0,1-2.191,7.351,5.111,5.111,0,0,1-5.068-.432,6.834,6.834,0,0,1-1.34-1.362,5.087,5.087,0,0,1-.362-5.029,5.153,5.153,0,0,1,3.811-2.872A6.361,6.361,0,0,1,242.285-275.6Z" transform="translate(-225.012 -225.027)"/>
    <path id="Caminho_7532" data-name="Caminho 7532" d="M304.33-191.995c-.039.022-.746.808-1.567,1.746l-1.493,1.707-.746-.742c-.41-.406-.794-.773-.856-.812a.582.582,0,0,0-.275-.07.45.45,0,0,0-.362.69c.035.065.5.554,1.039,1.083,1.052,1.048,1.122,1.091,1.4.956.092-.044.777-.8,1.838-2.012,1.632-1.873,1.689-1.947,1.689-2.117A.473.473,0,0,0,304.33-191.995Z" transform="translate(-286.062 -305.915)"/>
  </g>
</svg>
